<svg width="24" height="24" viewBox="0 0 24 24" fill="none" xmlns="http://www.w3.org/2000/svg">
<g clip-path="url(#clip0_17_403)">
<path d="M7.25353 16.7774L16.2828 9.20095L15.8456 14.1989C15.8363 14.2874 15.8447 14.3769 15.8703 14.4621C15.896 14.5473 15.9384 14.6266 15.995 14.6953C16.0516 14.7639 16.1213 14.8207 16.2001 14.8621C16.2788 14.9035 16.3651 14.9289 16.4537 14.9366C16.5424 14.9444 16.6317 14.9344 16.7164 14.9073C16.8012 14.8801 16.8797 14.8364 16.9474 14.7786C17.0151 14.7208 17.0706 14.6501 17.1106 14.5706C17.1507 14.4912 17.1745 14.4045 17.1807 14.3157L17.759 7.70591C17.7745 7.52886 17.719 7.35291 17.6048 7.21677C17.4905 7.08062 17.3269 6.99542 17.1498 6.97991L10.54 6.40162C10.3647 6.38935 10.1916 6.44643 10.0579 6.56056C9.9243 6.67469 9.84083 6.83674 9.82552 7.01182C9.8102 7.18689 9.86426 7.36097 9.97605 7.49658C10.0878 7.63218 10.2484 7.71845 10.4232 7.73681L15.4212 8.17407L6.39188 15.7505C6.25571 15.8648 6.1705 16.0285 6.15501 16.2056C6.13952 16.3827 6.19501 16.5586 6.30927 16.6948C6.42353 16.831 6.5872 16.9162 6.76429 16.9317C6.94137 16.9472 7.11736 16.8917 7.25353 16.7774Z" fill="black"/>
</g>
<defs>
<clipPath id="clip0_17_403">
<rect width="16.0858" height="16.0858" fill="white" transform="translate(23.2871 12.9473) rotate(140)"/>
</clipPath>
</defs>
</svg>
