<svg width="35" height="35" viewBox="0 0 35 35" fill="none" xmlns="http://www.w3.org/2000/svg">
<path d="M34.6829 16.4656C34.589 16.4267 34.4857 16.4165 34.3861 16.4363C34.2864 16.4561 34.1949 16.5051 34.123 16.5769L32.5845 18.1155V7.65437C32.5845 7.51812 32.5303 7.38745 32.434 7.29111C32.3376 7.19477 32.207 7.14064 32.0707 7.14064H28.1236L29.5564 5.70783L29.557 5.70715L30.9376 4.32656C31.2334 4.03077 31.3963 3.6373 31.3963 3.21894C31.3963 2.80058 31.2334 2.40724 30.9376 2.11131L29.3411 0.514844C29.0454 0.219053 28.6519 0.0561523 28.2335 0.0561523C27.8152 0.0561523 27.4217 0.219053 27.1259 0.514844L25.7446 1.89611L24.0756 3.56518L20.5002 7.14058H4.5541V2.0584C4.5541 1.99094 4.54081 1.92413 4.515 1.86181C4.48918 1.79948 4.45134 1.74285 4.40364 1.69514C4.35593 1.64744 4.2993 1.6096 4.23697 1.58378C4.17465 1.55797 4.10784 1.54468 4.04038 1.54468C1.81255 1.54481 0 3.35723 0 5.5852V27.4046C0 27.4425 0.004375 27.4794 0.012168 27.5149C0.083125 28.4603 0.492119 29.3386 1.17564 30.0054C1.90627 30.718 2.87075 31.1104 3.89149 31.1104H19.5894L16.6329 34.0669C16.5611 34.1388 16.5122 34.2303 16.4924 34.33C16.4726 34.4296 16.4828 34.5329 16.5217 34.6267C16.5605 34.7206 16.6264 34.8008 16.7108 34.8573C16.7953 34.9137 16.8946 34.9439 16.9962 34.9439H34.4863C34.6225 34.9439 34.7532 34.8898 34.8495 34.7934C34.9459 34.6971 35 34.5664 35 34.4302V16.9402C35 16.8386 34.9698 16.7393 34.9134 16.6548C34.857 16.5704 34.7767 16.5045 34.6829 16.4656ZM27.8525 1.24144C28.0625 1.0313 28.4047 1.0313 28.6147 1.24144L30.2112 2.83797C30.4214 3.04804 30.4214 3.39004 30.2112 3.60018L29.1933 4.61818L26.8345 2.25944L27.8525 1.24144ZM26.1079 2.98597L28.4667 5.34464L27.5241 6.28725L25.1655 3.92857L26.1079 2.98597ZM33.9727 22.7126H33.0249C32.9574 22.7126 32.8906 22.7259 32.8283 22.7517C32.766 22.7775 32.7093 22.8154 32.6616 22.8631C32.6139 22.9108 32.5761 22.9674 32.5503 23.0298C32.5244 23.0921 32.5112 23.1589 32.5112 23.2264C32.5112 23.2938 32.5244 23.3606 32.5503 23.423C32.5761 23.4853 32.6139 23.5419 32.6616 23.5896C32.7093 23.6373 32.766 23.6752 32.8283 23.701C32.8906 23.7268 32.9574 23.7401 33.0249 23.7401H33.9727V25.2881H33.0249C32.7411 25.2881 32.5112 25.5181 32.5112 25.8019C32.5112 26.0856 32.7411 26.3156 33.0249 26.3156H33.9727V27.8636H33.0249C32.9574 27.8636 32.8906 27.8769 32.8283 27.9027C32.766 27.9285 32.7093 27.9663 32.6616 28.014C32.6139 28.0617 32.5761 28.1184 32.5503 28.1807C32.5244 28.243 32.5112 28.3098 32.5112 28.3773C32.5112 28.4448 32.5244 28.5116 32.5503 28.5739C32.5761 28.6362 32.6139 28.6929 32.6616 28.7406C32.7093 28.7883 32.766 28.8261 32.8283 28.8519C32.8906 28.8778 32.9574 28.891 33.0249 28.891H33.9727V30.4391H33.0249C32.8886 30.4391 32.758 30.4932 32.6616 30.5896C32.5653 30.6859 32.5112 30.8166 32.5112 30.9528C32.5112 31.0891 32.5653 31.2197 32.6616 31.3161C32.758 31.4124 32.8886 31.4665 33.0249 31.4665H33.9727V33.9167H18.2364L23.4254 28.7277C23.4731 28.68 23.5109 28.6234 23.5368 28.5611C23.5626 28.4987 23.5759 28.4319 23.5759 28.3645C23.5759 28.297 23.5626 28.2302 23.5368 28.1679C23.5109 28.1055 23.4731 28.0489 23.4254 28.0012C23.4028 27.9787 23.3781 27.9584 23.3517 27.9404C23.2528 27.8729 23.1335 27.842 23.0143 27.8531C22.8951 27.8642 22.7835 27.9166 22.6988 28.0012L20.6168 30.0831H3.89156C2.33352 30.0831 1.07926 28.8668 1.0299 27.3115C1.0328 27.2145 1.04038 27.1177 1.0526 27.0214L1.0528 27.0198C1.05854 26.9743 1.06545 26.929 1.07331 26.8841L1.07604 26.8687C1.09467 26.7651 1.11879 26.6625 1.1483 26.5615C1.15582 26.5354 1.16361 26.5093 1.17188 26.4835C1.18016 26.4578 1.18897 26.4323 1.19793 26.4068C1.20415 26.3889 1.2103 26.3711 1.217 26.3534C1.22951 26.3198 1.24277 26.2865 1.25645 26.2534C1.26034 26.2439 1.26417 26.2343 1.2682 26.2248C1.28577 26.1838 1.30402 26.1433 1.3233 26.1032L1.32569 26.0981C1.72751 25.2665 2.50031 24.6466 3.42774 24.4542L3.43554 24.4525C3.47806 24.4438 3.52099 24.4364 3.56419 24.4295C3.57137 24.4283 3.57855 24.4269 3.58586 24.4258C3.62506 24.42 3.66438 24.415 3.70378 24.4108C3.71485 24.4095 3.72586 24.4078 3.737 24.4067C3.77525 24.4031 3.81356 24.4002 3.85191 24.398C3.86408 24.3972 3.87625 24.3959 3.88842 24.3953C3.93903 24.3928 3.9897 24.3915 4.04038 24.3915C4.10784 24.3915 4.17465 24.3782 4.23697 24.3524C4.2993 24.3266 4.35593 24.2887 4.40364 24.241C4.45134 24.1933 4.48918 24.1367 4.515 24.0743C4.54081 24.012 4.5541 23.9452 4.5541 23.8778V20.1529C4.5541 20.0167 4.49998 19.886 4.40364 19.7897C4.30729 19.6933 4.17663 19.6392 4.04038 19.6392C3.90413 19.6392 3.77347 19.6933 3.67713 19.7897C3.58078 19.886 3.52666 20.0167 3.52666 20.1529V23.3964C2.65918 23.5061 1.85397 23.893 1.21905 24.513C1.15289 24.5782 1.08893 24.6455 1.0273 24.715V5.5852C1.0273 4.09899 2.10916 2.86053 3.52659 2.61594V18.0982C3.52879 18.233 3.58388 18.3615 3.67998 18.456C3.77609 18.5506 3.9055 18.6036 4.04031 18.6036C4.17513 18.6036 4.30454 18.5506 4.40064 18.456C4.49674 18.3615 4.55183 18.233 4.55403 18.0982V8.16809H19.4728L16.6329 11.008C16.5377 11.1046 16.4847 11.2349 16.4852 11.3704C16.4857 11.506 16.5398 11.6358 16.6356 11.7317C16.7315 11.8276 16.8613 11.8817 16.9969 11.8822C17.1324 11.8827 17.2627 11.8296 17.3593 11.7345L21.0762 8.01763L21.0766 8.01728L24.4388 4.65503L26.7974 7.01377L26.5207 7.29049L26.52 7.2911L16.1617 17.6496L13.803 15.2909L15.8447 13.2492C15.9399 13.1526 15.993 13.0223 15.9924 12.8868C15.9919 12.7512 15.9378 12.6213 15.842 12.5255C15.7461 12.4296 15.6163 12.3755 15.4807 12.375C15.3452 12.3745 15.2149 12.4275 15.1183 12.5226L12.7132 14.9277C12.7004 14.9405 12.6884 14.954 12.677 14.9681C12.6733 14.9727 12.6699 14.9777 12.6664 14.9826C12.6591 14.9922 12.652 15.0019 12.6454 15.012C12.6416 15.0179 12.6382 15.0239 12.6347 15.03C12.6252 15.0457 12.6167 15.062 12.6093 15.0788C12.6047 15.0889 12.6005 15.099 12.5966 15.1094C12.5952 15.113 12.5934 15.1164 12.5921 15.12L11.5913 17.9552L10.9089 19.8884C10.9001 19.9138 10.8933 19.94 10.8886 19.9665H9.18012C9.11265 19.9665 9.04585 19.9798 8.98353 20.0056C8.9212 20.0314 8.86456 20.0693 8.81686 20.117C8.76916 20.1647 8.73132 20.2213 8.7055 20.2836C8.67968 20.346 8.6664 20.4128 8.6664 20.4802C8.6664 20.5477 8.67968 20.6145 8.7055 20.6768C8.73132 20.7391 8.76916 20.7958 8.81686 20.8435C8.86456 20.8912 8.9212 20.929 8.98353 20.9548C9.04585 20.9807 9.11265 20.9939 9.18012 20.9939H23.4067C23.4741 20.994 23.5409 20.9807 23.6033 20.9549C23.6656 20.929 23.7222 20.8912 23.7699 20.8435C23.8176 20.7958 23.8555 20.7392 23.8813 20.6768C23.9071 20.6145 23.9204 20.5477 23.9204 20.4802C23.9204 20.4128 23.9071 20.346 23.8813 20.2836C23.8555 20.2213 23.8176 20.1647 23.7699 20.1169C23.7222 20.0692 23.6656 20.0314 23.6033 20.0056C23.5409 19.9798 23.4741 19.9665 23.4067 19.9665H13.1997L16.3326 18.8606C16.3352 18.8596 16.3377 18.8583 16.3403 18.8574C16.3525 18.8529 16.3644 18.8478 16.3762 18.8424C16.381 18.8402 16.3857 18.8382 16.3903 18.8359C16.4026 18.8298 16.4147 18.823 16.4266 18.8157C16.4304 18.8134 16.4343 18.8113 16.4381 18.8089C16.4505 18.801 16.4625 18.7923 16.4743 18.7831C16.4773 18.7809 16.4804 18.7789 16.4832 18.7766C16.4975 18.7651 16.5115 18.7527 16.5248 18.7395L27.0962 8.16815H31.5569V19.143L24.2086 26.4914C24.1609 26.5391 24.123 26.5957 24.0972 26.6581C24.0714 26.7204 24.0581 26.7872 24.0581 26.8547C24.0581 26.9221 24.0714 26.9889 24.0972 27.0513C24.123 27.1136 24.1609 27.1702 24.2086 27.2179C24.2563 27.2656 24.3129 27.3035 24.3752 27.3293C24.4376 27.3551 24.5044 27.3684 24.5718 27.3684C24.6393 27.3684 24.7061 27.3551 24.7684 27.3293C24.8308 27.3035 24.8874 27.2656 24.9351 27.2179L24.9353 27.2177L33.9727 18.1803V22.7126ZM15.2221 18.1629L13.7506 18.6824L12.7701 17.702L13.2896 16.2305L15.2221 18.1629Z" fill="white"/>
</svg>
