<svg width="35" height="35" viewBox="0 0 35 35" fill="none" xmlns="http://www.w3.org/2000/svg">
<path d="M6.26618 11.1949C6.26618 13.0684 7.36991 14.7799 9.07801 15.5549C9.19109 15.6089 9.27847 15.7052 9.32139 15.8229C9.36431 15.9407 9.35935 16.0705 9.30756 16.1847C9.25578 16.2988 9.16131 16.3881 9.04444 16.4333C8.92756 16.4785 8.79761 16.4761 8.68248 16.4266C6.63313 15.4967 5.30894 13.4431 5.30894 11.1949C5.30894 8.03005 7.88377 5.45522 11.0485 5.45522C13.8067 5.45522 16.1787 7.41864 16.6888 10.1238C16.711 10.2479 16.6832 10.3759 16.6116 10.4797C16.54 10.5835 16.4302 10.6549 16.3063 10.6783C16.1823 10.7016 16.0541 10.6751 15.9496 10.6045C15.8451 10.5339 15.7727 10.4248 15.7481 10.3011C15.3232 8.04789 13.3468 6.41253 11.0485 6.41253C8.4115 6.41253 6.26618 8.55785 6.26618 11.1949ZM7.11787 18.1339C6.99242 18.0625 6.86876 17.9879 6.74702 17.9103C6.39093 17.6801 5.93204 17.7292 5.63126 18.0299L5.09416 18.567C4.83371 18.3563 4.5846 18.132 4.34788 17.895C4.11093 17.6592 3.88711 17.4105 3.67741 17.1501L4.2154 16.6122C4.51468 16.3129 4.56437 15.8549 4.33585 15.4976C3.82492 14.703 3.46093 13.8232 3.26124 12.8999C3.17011 12.4858 2.81054 12.1966 2.38685 12.1966H1.62574C1.55482 11.5306 1.55488 10.859 1.62594 10.193H2.38678C2.80979 10.193 3.16929 9.90501 3.26151 9.49027C3.46078 8.56731 3.82438 7.68771 4.33496 6.89343C4.56547 6.53735 4.51625 6.07845 4.21478 5.77706L3.67652 5.24057C3.88732 4.97982 4.11181 4.73043 4.34904 4.49347C4.58586 4.25738 4.83455 4.03351 5.09416 3.82273L5.63126 4.36168C5.93204 4.66239 6.39094 4.71161 6.74538 4.4824C7.53988 3.97258 8.41879 3.60826 9.34098 3.40649C9.75764 3.31899 10.0486 2.95983 10.0486 2.53313V1.77202C10.714 1.70116 11.385 1.70116 12.0503 1.77202V2.53313C12.0503 2.95983 12.3413 3.31899 12.7539 3.40567C13.6827 3.60938 14.5566 3.97155 15.3521 4.48274C15.7093 4.71113 16.1681 4.66136 16.4683 4.3612L17.0048 3.82287C17.264 4.03324 17.5123 4.2567 17.7487 4.49238C17.998 4.74346 18.2184 4.98812 18.4216 5.23969L17.8836 5.77767C17.5828 6.07852 17.5336 6.53742 17.7631 6.892C18.0574 7.35076 18.3035 7.83873 18.4975 8.34812C18.5435 8.46566 18.634 8.56031 18.7493 8.61146C18.8647 8.66261 18.9956 8.66612 19.1136 8.62124C19.2315 8.57636 19.327 8.48672 19.3791 8.37181C19.4313 8.25691 19.436 8.12604 19.3922 8.00769C19.1808 7.45273 18.9142 6.92038 18.5965 6.41868L19.138 5.8772C19.4614 5.5538 19.4898 5.04124 19.2048 4.68611C18.9708 4.39258 18.7166 4.10861 18.4268 3.81678C18.1514 3.54216 17.8614 3.28259 17.558 3.0392C17.2046 2.75653 16.694 2.78408 16.3678 3.10612L15.826 3.64965C14.962 3.10134 14.0156 2.70882 13.0076 2.48152V1.71549C13.0076 1.25891 12.6661 0.876921 12.2145 0.827156C11.4407 0.739952 10.6595 0.739906 9.88574 0.827019C9.43286 0.876921 9.0914 1.25891 9.0914 1.71549V2.48152C8.09159 2.70575 7.13791 3.10065 6.27226 3.64889L5.72846 3.10339C5.40512 2.78415 4.89462 2.7566 4.53997 3.03995C4.23699 3.28312 3.9473 3.54239 3.67215 3.81665C3.39717 4.09134 3.13777 4.38121 2.89517 4.68488C2.61059 5.03946 2.63718 5.55106 2.95964 5.87761L3.50241 6.41861C2.9536 7.28298 2.55938 8.23625 2.33736 9.23577H1.56907C1.34903 9.23553 1.13664 9.31656 0.972681 9.46331C0.80872 9.61006 0.704731 9.8122 0.680671 10.0309C0.593468 10.8047 0.593422 11.5858 0.680535 12.3595C0.730369 12.8124 1.11236 13.1539 1.56907 13.1539H2.33688C2.5592 14.1535 2.95358 15.1068 3.50241 15.9712L2.95683 16.5168C2.63589 16.842 2.61005 17.3536 2.89415 17.7036C3.1365 18.0082 3.39625 18.2985 3.67208 18.5731C3.94609 18.8475 4.23525 19.1063 4.53819 19.3484C4.69626 19.4772 4.89398 19.5475 5.09792 19.5474C5.32726 19.5474 5.55606 19.4588 5.73052 19.2843L6.27219 18.7425C6.39527 18.8203 6.52015 18.8952 6.64674 18.9672C6.75704 19.0267 6.88629 19.0406 7.00672 19.0059C7.12715 18.9711 7.22916 18.8906 7.29083 18.7814C7.3525 18.6723 7.36891 18.5434 7.33655 18.4223C7.30418 18.3012 7.22562 18.1976 7.11773 18.1338L7.11787 18.1339ZM19.8517 27.594C16.6003 27.594 13.9552 24.9489 13.9552 21.6975C13.9552 18.4461 16.6003 15.8009 19.8517 15.8009C20.0234 15.8009 20.1956 15.8081 20.3634 15.8224C20.6265 15.8443 20.8584 15.6494 20.8809 15.386C20.8862 15.3234 20.8791 15.2603 20.8601 15.2004C20.8411 15.1405 20.8104 15.0849 20.7699 15.0369C20.7294 14.9888 20.6798 14.9493 20.6239 14.9204C20.5681 14.8915 20.5072 14.8739 20.4445 14.8686C20.2474 14.8519 20.0496 14.8436 19.8517 14.8436C16.0725 14.8436 12.9979 17.9183 12.9979 21.6975C12.9979 25.4767 16.0725 28.5513 19.8517 28.5513C23.6309 28.5513 26.7055 25.4767 26.7055 21.6975C26.7055 21.426 26.69 21.1603 26.6594 20.9075C26.6519 20.8451 26.6321 20.7848 26.6013 20.7301C26.5704 20.6753 26.5291 20.6272 26.4796 20.5884C26.4301 20.5496 26.3735 20.5209 26.313 20.504C26.2525 20.4871 26.1892 20.4823 26.1268 20.4899C26.0644 20.4974 26.0041 20.5172 25.9494 20.548C25.8946 20.5789 25.8465 20.6202 25.8077 20.6697C25.7689 20.7191 25.7402 20.7758 25.7233 20.8363C25.7064 20.8968 25.7016 20.9601 25.7092 21.0225C25.7351 21.2373 25.7483 21.4644 25.7483 21.6975C25.7483 24.9488 23.1032 27.594 19.8518 27.594H19.8517ZM31.3387 19.4264H30.3485C30.3338 19.4264 30.3272 19.4213 30.3236 19.4041C30.2831 19.2229 30.2389 19.0427 30.1909 18.8634C30.1228 18.608 29.8605 18.4559 29.6052 18.5242C29.5444 18.5404 29.4875 18.5684 29.4376 18.6066C29.3877 18.6448 29.3458 18.6924 29.3143 18.7468C29.2828 18.8012 29.2623 18.8613 29.254 18.9236C29.2458 18.9859 29.2498 19.0492 29.266 19.1099C29.3103 19.2752 29.3511 19.4415 29.3885 19.6085C29.4866 20.0649 29.8814 20.3837 30.3486 20.3837H31.3388C31.344 20.3837 31.361 20.385 31.3631 20.4043C31.4597 21.2648 31.4596 22.1334 31.3628 22.9938C31.3615 23.0057 31.3521 23.0133 31.3388 23.0133H30.3486C29.8811 23.0133 29.4863 23.3313 29.3887 23.7856C29.1438 24.9155 28.6984 25.9923 28.0735 26.965C27.8195 27.3556 27.8732 27.8595 28.2041 28.1903L28.9056 28.8919C28.9153 28.9015 28.9157 28.914 28.9069 28.925C28.6423 29.2563 28.3518 29.5806 28.0434 29.8891C27.7375 30.1955 27.4144 30.4843 27.0757 30.754C27.0664 30.7614 27.0551 30.7605 27.046 30.7514L26.3445 30.0499C26.0169 29.7224 25.5141 29.6675 25.1194 29.9179C24.145 30.5444 23.0752 30.9874 21.9372 31.235C21.484 31.3361 21.1676 31.7307 21.1676 32.1943V33.1865C21.1676 33.1961 21.1614 33.2071 21.145 33.2089C20.2846 33.3055 19.416 33.3054 18.5556 33.2086C18.5502 33.2081 18.5451 33.2055 18.5415 33.2014C18.5378 33.1973 18.5359 33.192 18.536 33.1865V32.1943C18.536 31.7269 18.218 31.3321 17.7637 31.2344C16.6326 30.9895 15.5548 30.543 14.5818 29.9165C14.1896 29.6675 13.6867 29.7224 13.359 30.0499L12.6576 30.7514C12.6484 30.7606 12.6371 30.7615 12.6252 30.7519C12.2875 30.4828 11.9653 30.1948 11.6602 29.8892C11.3548 29.5841 11.0666 29.2623 10.7968 28.9253C10.7878 28.914 10.7882 28.9015 10.7979 28.8918L11.4994 28.1903C11.8293 27.8605 11.8835 27.3565 11.6314 26.9651C11.0057 25.9931 10.5599 24.9165 10.3152 23.7867C10.2174 23.3313 9.82333 23.0133 9.35698 23.0133H8.36481C8.35155 23.0133 8.34212 23.0057 8.34054 22.9908C8.2439 22.1304 8.24401 21.2618 8.34089 20.4013C8.3426 20.385 8.35968 20.3838 8.36488 20.3838H9.35705C9.82312 20.3838 10.2171 20.065 10.315 19.6097C10.5603 18.4798 11.0061 17.403 11.6313 16.4303C11.8835 16.0387 11.8294 15.5347 11.4995 15.2048L10.798 14.5033C10.7883 14.4936 10.7879 14.483 10.7967 14.472C11.0665 14.1344 11.3548 13.8119 11.6603 13.506C11.9667 13.2002 12.2897 12.9115 12.6278 12.6412C12.6371 12.6338 12.6486 12.6346 12.6576 12.6438L13.3591 13.3453C13.6891 13.6752 14.1931 13.7292 14.5842 13.4773C15.5562 12.8515 16.6329 12.4057 17.7627 12.161C18.2181 12.063 18.5361 11.6691 18.5361 11.2027V10.2106C18.5361 10.1904 18.5538 10.1868 18.5586 10.1863C19.4179 10.0897 20.2852 10.0897 21.1445 10.1863C21.1499 10.1869 21.1676 10.1905 21.1676 10.2106V11.2028C21.1676 11.6691 21.4856 12.0631 21.9399 12.1608C22.0525 12.1853 22.1644 12.2129 22.2827 12.242L22.3263 12.2527C22.3873 12.2678 22.4507 12.2706 22.5128 12.2611C22.575 12.2517 22.6346 12.23 22.6884 12.1975C22.7422 12.165 22.789 12.1222 22.8263 12.0715C22.8635 12.0209 22.8904 11.9634 22.9054 11.9024C22.9205 11.8413 22.9233 11.7779 22.9138 11.7158C22.9044 11.6537 22.8827 11.594 22.8502 11.5402C22.8177 11.4864 22.7749 11.4396 22.7242 11.4023C22.6736 11.3651 22.6161 11.3382 22.5551 11.3232L22.5119 11.3126C22.3891 11.2817 22.2658 11.2525 22.1421 11.2252C22.1309 11.2228 22.1249 11.2185 22.1249 11.2028V10.2106C22.1249 9.71107 21.7499 9.29175 21.2521 9.23509C20.3214 9.1306 19.3818 9.1306 18.451 9.23509C17.9539 9.29169 17.5789 9.71107 17.5789 10.2106V11.2028C17.5789 11.2185 17.5728 11.2227 17.5606 11.2254C16.3184 11.4943 15.1348 11.9844 14.0661 12.6723C14.0583 12.6774 14.0486 12.6809 14.036 12.6684L13.3345 11.9669C12.9795 11.6121 12.4175 11.5814 12.0285 11.8948C11.6632 12.1868 11.3143 12.4988 10.9834 12.8292C10.6527 13.1602 10.3406 13.5092 10.0486 13.8748C9.73665 14.2658 9.76782 14.827 10.1212 15.1803L10.8227 15.8818C10.8352 15.8943 10.8316 15.9041 10.8261 15.9126C10.1389 16.9818 9.64888 18.1654 9.37933 19.4074C9.37571 19.4243 9.36648 19.4265 9.35705 19.4265H8.36488C7.86135 19.4265 7.44182 19.8022 7.38932 20.2973C7.28479 21.2269 7.28468 22.1652 7.38898 23.0948C7.44189 23.5941 7.86141 23.9706 8.36481 23.9706H9.35698C9.37263 23.9706 9.37687 23.9766 9.37954 23.9889C9.64846 25.231 10.1386 26.4146 10.8265 27.4832C10.8316 27.4911 10.8351 27.501 10.8226 27.5134L10.1212 28.2149C9.76734 28.5687 9.73617 29.1307 10.0488 29.5226C10.3408 29.8874 10.6528 30.2358 10.9834 30.5661C11.3195 30.9022 11.6716 31.2169 12.0272 31.4993C12.4174 31.814 12.9794 31.7834 13.3345 31.4284L14.0359 30.7269C14.0397 30.723 14.0499 30.7125 14.0665 30.7232C15.1353 31.4111 16.3192 31.9012 17.5615 32.1701C17.5692 32.1717 17.5788 32.1738 17.5788 32.1943V33.1865C17.5788 33.6887 17.9552 34.1074 18.4515 34.1601C19.3811 34.2646 20.3194 34.2646 21.249 34.1604C21.4897 34.1352 21.7124 34.0217 21.8742 33.8418C22.0359 33.6619 22.1252 33.4284 22.1247 33.1864V32.1943C22.1247 32.1805 22.1279 32.1731 22.1432 32.1698C23.3907 31.8983 24.5663 31.4116 25.6348 30.7245C25.6535 30.7126 25.6638 30.7229 25.6676 30.7267L26.3691 31.4282C26.7242 31.7832 27.2862 31.8137 27.6737 31.5012C28.04 31.2095 28.3894 30.8972 28.7202 30.5658C29.0508 30.2355 29.3629 29.8871 29.6549 29.5222C29.9674 29.1305 29.9362 28.5685 29.5824 28.2147L28.8809 27.5132C28.8674 27.4998 28.8734 27.4906 28.8775 27.4843C29.565 26.4147 30.055 25.2304 30.3242 23.9877C30.3259 23.98 30.3279 23.9704 30.3485 23.9704H31.3387C31.8421 23.9704 32.2616 23.5939 32.3142 23.0977C32.4188 22.1681 32.4189 21.2297 32.3146 20.3001C32.2617 19.8019 31.8422 19.4263 31.3387 19.4263V19.4264ZM34.3126 11.5244C34.2984 11.4375 34.2605 11.3562 34.203 11.2895C34.1455 11.2227 34.0708 11.1731 33.9869 11.1462C33.9031 11.1192 33.8134 11.1159 33.7278 11.1366C33.6422 11.1573 33.564 11.2012 33.5018 11.2635L31.151 13.6143L28.4333 12.8854L27.7044 10.1655L29.7633 8.10476L30.054 7.81601C30.1165 7.75385 30.1607 7.67562 30.1816 7.58996C30.2025 7.5043 30.1993 7.41453 30.1724 7.33055C30.1456 7.24657 30.096 7.17165 30.0292 7.11405C29.9625 7.05645 29.8811 7.0184 29.7941 7.00411C28.0545 6.71864 26.2713 7.29183 25.0241 8.537C23.6615 9.89968 23.1198 11.8634 23.5759 13.7231L15.2521 22.045C15.2076 22.0894 15.1724 22.1422 15.1483 22.2003C15.1242 22.2583 15.1119 22.3206 15.1118 22.3834C15.1118 22.4463 15.1242 22.5085 15.1483 22.5666C15.1723 22.6246 15.2076 22.6774 15.252 22.7218C15.2965 22.7663 15.3492 22.8016 15.4073 22.8256C15.4654 22.8497 15.5276 22.8621 15.5905 22.8621C15.6533 22.8621 15.7156 22.8497 15.7736 22.8256C15.8317 22.8016 15.8845 22.7663 15.9289 22.7218L24.4492 14.2035C24.5104 14.1423 24.5539 14.0657 24.575 13.9817C24.5961 13.8978 24.5941 13.8097 24.5691 13.7268C24.0858 12.1246 24.5196 10.3953 25.7007 9.21403C26.4859 8.43022 27.5281 7.96907 28.616 7.89866L26.832 9.68414C26.7726 9.74356 26.7299 9.81757 26.7082 9.89872C26.6864 9.97987 26.6865 10.0653 26.7082 10.1465L27.5802 13.3998C27.6019 13.481 27.6446 13.555 27.704 13.6144C27.7634 13.6738 27.8374 13.7165 27.9185 13.7383L31.17 14.6103C31.2512 14.6321 31.3367 14.6322 31.4179 14.6104C31.4991 14.5887 31.5731 14.5459 31.6324 14.4864L33.4182 12.7006C33.3485 13.7898 32.8873 14.8321 32.1027 15.6155C30.9216 16.7967 29.1929 17.2312 27.5912 16.7493C27.5084 16.7245 27.4204 16.7225 27.3366 16.7436C27.2527 16.7647 27.1762 16.8081 27.115 16.8692L18.5036 25.4806C18.415 25.5706 18.3656 25.6919 18.3661 25.8182C18.3666 25.9445 18.417 26.0654 18.5063 26.1547C18.5956 26.244 18.7166 26.2944 18.8428 26.2949C18.9691 26.2954 19.0905 26.246 19.1805 26.1574L27.5957 17.7423C28.0232 17.8469 28.4617 17.8998 28.9019 17.8999C29.6221 17.8999 30.3353 17.758 31.0006 17.4822C31.6659 17.2064 32.2704 16.8022 32.7794 16.2926C34.025 15.0491 34.5981 13.2664 34.3125 11.5243L34.3126 11.5244Z" fill="#757A76"/>
</svg>
