<svg width="47" height="32" viewBox="0 0 47 32" fill="none" xmlns="http://www.w3.org/2000/svg">
<path d="M2 0.5C1.17157 0.5 0.5 1.17157 0.5 2C0.5 2.82843 1.17157 3.5 2 3.5V0.5ZM35 2H36.5V0.5H35V2ZM33.9393 31.0607C34.5251 31.6464 35.4749 31.6464 36.0607 31.0607L45.6066 21.5147C46.1924 20.9289 46.1924 19.9792 45.6066 19.3934C45.0208 18.8076 44.0711 18.8076 43.4853 19.3934L35 27.8787L26.5147 19.3934C25.9289 18.8076 24.9792 18.8076 24.3934 19.3934C23.8076 19.9792 23.8076 20.9289 24.3934 21.5147L33.9393 31.0607ZM2 3.5H35V0.5H2V3.5ZM33.5 2V30H36.5V2H33.5Z" fill="black"/>
</svg>
