<svg width="37" height="37" viewBox="0 0 37 37" fill="none" xmlns="http://www.w3.org/2000/svg">
<path d="M33.5519 28.4569H33.8442V22.7555C33.8442 22.6022 33.7833 22.4551 33.6749 22.3467C33.5665 22.2383 33.4194 22.1774 33.2661 22.1774H27.1575C27.0042 22.1774 26.8571 22.2383 26.7487 22.3467C26.6403 22.4551 26.5794 22.6022 26.5794 22.7555V28.2861H25.2451V22.7555C25.2451 22.6022 25.1842 22.4551 25.0758 22.3467C24.9674 22.2383 24.8203 22.1774 24.667 22.1774H18.5584C18.4051 22.1774 18.258 22.2383 18.1496 22.3467C18.0412 22.4551 17.9803 22.6022 17.9803 22.7555V28.2861H15.4557V27.8845C15.4557 27.0256 14.7569 26.3268 13.8979 26.3268H13.4947L12.0967 21.0424L12.1546 20.892C12.7616 20.7222 13.3459 20.48 13.8949 20.1706L15.0103 20.6659C15.1171 20.7134 15.2357 20.7273 15.3506 20.706C15.4654 20.6846 15.5711 20.629 15.6537 20.5464L17.2891 18.911C17.3717 18.8284 17.4274 18.7227 17.4487 18.6078C17.47 18.493 17.4561 18.3743 17.4086 18.2676L16.9131 17.1518C17.2224 16.6029 17.4645 16.0189 17.6343 15.4121L18.7729 14.9739C18.8819 14.932 18.9757 14.858 19.0418 14.7616C19.108 14.6653 19.1434 14.5512 19.1434 14.4344V12.1217C19.1434 12.0048 19.108 11.8908 19.0419 11.7944C18.9757 11.6981 18.882 11.6241 18.7729 11.5821L17.6347 11.1441C17.5367 10.7947 17.4146 10.4526 17.2692 10.1202L21.9201 6.22321L26.635 10.3546C26.6582 10.9182 26.8794 11.4316 27.2306 11.827C25.5997 12.5189 24.4529 14.1364 24.4529 16.0168C24.4529 17.6342 25.3232 19.1433 26.7243 19.9551C26.8121 20.006 26.9119 20.0328 27.0134 20.033C27.115 20.0331 27.2148 20.0065 27.3028 19.9557C27.3908 19.905 27.4639 19.832 27.5147 19.7441C27.5655 19.6562 27.5922 19.5564 27.5922 19.4548V16.2936L28.9609 15.5033L30.3295 16.2936V19.5007C30.3295 19.6011 30.3557 19.6998 30.4054 19.787C30.4551 19.8742 30.5267 19.947 30.6131 19.9982C30.6995 20.0493 30.7977 20.0771 30.8981 20.0788C30.9985 20.0804 31.0975 20.0559 31.1856 20.0077C32.6443 19.208 33.5504 17.6788 33.5504 16.0169C33.5504 14.1364 32.4036 12.519 30.7727 11.8271C31.1443 11.4086 31.3704 10.858 31.3704 10.2557C31.3704 8.97899 30.355 7.93504 29.0895 7.88865L24.7907 3.27564C24.7508 1.82383 23.5582 0.654785 22.0969 0.654785C21.1383 0.654785 20.2957 1.15812 19.8175 1.91387L13.0075 5.95706C12.7291 5.84314 12.4443 5.74535 12.1547 5.66417L11.7165 4.52562C11.6745 4.41658 11.6005 4.32281 11.5042 4.25668C11.4079 4.19055 11.2938 4.15517 11.177 4.15519H8.86425C8.74742 4.15519 8.63333 4.19058 8.53701 4.25671C8.4407 4.32284 8.36668 4.41659 8.32471 4.52562L7.88635 5.66417C7.27965 5.83392 6.69559 6.07609 6.14677 6.38545L5.03092 5.88985C4.92414 5.84244 4.8055 5.82848 4.69064 5.84983C4.57577 5.87118 4.47007 5.92683 4.38746 6.00945L2.75209 7.64482C2.66949 7.72744 2.61385 7.83314 2.59251 7.94801C2.57117 8.06287 2.58514 8.18151 2.63256 8.28828L3.12809 9.40391C2.81868 9.9528 2.5765 10.537 2.40681 11.1438L1.26826 11.582C1.15923 11.624 1.06548 11.698 0.999349 11.7943C0.933222 11.8906 0.897827 12.0047 0.897828 12.1215V14.4342C0.897833 14.5511 0.933238 14.6652 0.999379 14.7615C1.06552 14.8578 1.15929 14.9318 1.26833 14.9738L2.40659 15.4119C2.57635 16.0188 2.81855 16.6031 3.12795 17.1522L2.63256 18.2675C2.58515 18.3743 2.5712 18.4929 2.59255 18.6078C2.6139 18.7227 2.66955 18.8284 2.75216 18.911L4.38761 20.5463C4.446 20.6044 4.51616 20.6492 4.59335 20.6779L4.93126 26.3267H4.71345C3.85458 26.3267 3.15584 27.0255 3.15584 27.8845V28.5577C1.64946 29.1418 0.578125 30.6055 0.578125 32.3156C0.578125 34.5375 2.38578 36.3451 4.60766 36.3451H32.3923C34.6142 36.3451 36.4219 34.5375 36.4219 32.3155C36.4219 30.4967 35.2102 28.9562 33.5519 28.4569ZM29.7672 23.3336H30.6563V24.6697H29.7672V23.3336ZM27.7356 23.3336H28.611V25.2478C28.611 25.4011 28.6719 25.5482 28.7803 25.6566C28.8887 25.765 29.0358 25.8259 29.1891 25.8259H31.2344C31.3878 25.8259 31.5348 25.765 31.6432 25.6566C31.7516 25.5482 31.8126 25.4011 31.8126 25.2478V23.3336H32.688V28.298C32.5896 28.2904 32.491 28.2864 32.3923 28.2861H27.7356V23.3336ZM21.1681 23.3336H22.0572V24.6697H21.1681V23.3336ZM19.1365 23.3336H20.0119V25.2478C20.0119 25.4011 20.0728 25.5482 20.1812 25.6566C20.2896 25.765 20.4367 25.8259 20.59 25.8259H22.6353C22.7887 25.8259 22.9357 25.765 23.0441 25.6566C23.1525 25.5482 23.2135 25.4011 23.2135 25.2478V23.3336H24.0889V28.2861H19.1365V23.3336ZM17.289 7.64482L15.6535 6.00945C15.5885 5.94464 15.5089 5.89632 15.4213 5.86853L19.4056 3.50306C19.458 4.43818 19.9893 5.2469 20.7575 5.68866L17.2625 8.61723L17.4086 8.28828C17.456 8.1815 17.47 8.06286 17.4486 7.94799C17.4273 7.83313 17.3716 7.72743 17.289 7.64482ZM32.3942 16.0166C32.3942 16.8738 32.0697 17.6993 31.4859 18.3271V15.9596C31.4859 15.8581 31.4592 15.7584 31.4085 15.6705C31.3577 15.5826 31.2847 15.5096 31.1969 15.4589L29.2501 14.3349C29.1622 14.2841 29.0625 14.2574 28.961 14.2574C28.8595 14.2574 28.7599 14.2841 28.672 14.3349L26.7252 15.4589C26.6373 15.5096 26.5643 15.5826 26.5136 15.6705C26.4628 15.7584 26.4361 15.8581 26.4361 15.9596V18.2342C25.9117 17.6257 25.6093 16.84 25.6093 16.0166C25.6093 14.146 27.1313 12.6241 29.0018 12.6241C30.8723 12.6241 32.3942 14.146 32.3942 16.0166ZM29.0016 9.04302C29.6702 9.04302 30.214 9.58689 30.214 10.2554C30.214 10.9239 29.6702 11.4678 29.0016 11.4678C28.3331 11.4678 27.7892 10.9239 27.7892 10.2554C27.7892 9.58689 28.3331 9.04302 29.0016 9.04302ZM26.9422 9.08623L23.2017 5.80863C23.7423 5.56429 24.1879 5.14948 24.4702 4.62773L27.8085 8.20987C27.448 8.42114 27.1493 8.72333 26.9422 9.08623ZM22.0968 1.81104C22.9457 1.81104 23.6364 2.50168 23.6364 3.35058C23.6364 4.19949 22.9457 4.89013 22.0968 4.89013C21.2479 4.89013 20.5573 4.19949 20.5573 3.35058C20.5573 2.50168 21.2479 1.81104 22.0968 1.81104ZM3.85031 18.3741L4.3053 17.3497C4.3434 17.2639 4.36003 17.1701 4.35373 17.0764C4.34744 16.9827 4.31841 16.8919 4.26916 16.8119C3.8944 16.204 3.61918 15.5401 3.45394 14.8453C3.43221 14.754 3.38855 14.6693 3.32674 14.5986C3.26493 14.5279 3.18682 14.4734 3.09918 14.4397L2.05401 14.0374V12.5185L3.09947 12.116C3.1871 12.0823 3.26519 12.0277 3.32699 11.9571C3.38879 11.8864 3.43243 11.8017 3.45415 11.7103C3.6194 11.0157 3.89459 10.352 4.26931 9.74421C4.31856 9.66424 4.34758 9.57348 4.35388 9.47978C4.36017 9.38607 4.34355 9.29225 4.30544 9.20641L3.85031 8.18168L4.92425 7.10767L5.94912 7.5628C6.03495 7.6009 6.12876 7.61752 6.22246 7.61123C6.31615 7.60493 6.40689 7.57591 6.48685 7.52667C7.09461 7.152 7.75833 6.87684 8.45291 6.71158C8.54425 6.68984 8.62891 6.64617 8.69958 6.58436C8.77026 6.52255 8.82481 6.44446 8.85854 6.35683L9.26098 5.31129H10.7799L11.1823 6.35683C11.216 6.44446 11.2706 6.52255 11.3413 6.58436C11.4119 6.64617 11.4966 6.68984 11.5879 6.71158C12.2825 6.87689 12.9463 7.15205 13.5541 7.52667C13.634 7.57591 13.7248 7.60494 13.8185 7.61122C13.9122 7.6175 14.006 7.60086 14.0918 7.56273L15.1166 7.1076L16.1906 8.18161L15.7356 9.20598C15.6975 9.29181 15.6809 9.38564 15.6872 9.47935C15.6935 9.57305 15.7225 9.66381 15.7718 9.74378C16.1465 10.3517 16.4217 11.0155 16.5869 11.7103C16.6087 11.8016 16.6523 11.8863 16.7141 11.957C16.7759 12.0277 16.854 12.0822 16.9417 12.116L17.9869 12.5183V14.0372L16.9414 14.4396C16.8537 14.4733 16.7756 14.5279 16.7138 14.5986C16.652 14.6692 16.6083 14.7539 16.5866 14.8453C16.4213 15.5399 16.1462 16.2036 15.7715 16.8114C15.7223 16.8914 15.6933 16.9821 15.687 17.0758C15.6808 17.1695 15.6974 17.2633 15.7355 17.3492L16.1906 18.374L15.1167 19.448L14.0922 18.9931C14.0064 18.9549 13.9126 18.9383 13.8189 18.9446C13.7251 18.9509 13.6344 18.9799 13.5544 19.0292C12.9465 19.4039 12.2827 19.6792 11.5879 19.8444C11.4966 19.8662 11.4119 19.9098 11.3412 19.9716C11.2705 20.0334 11.216 20.1115 11.1822 20.1992L10.7799 21.2443H9.26106L8.85861 20.1988C8.82488 20.1112 8.77032 20.0331 8.69964 19.9713C8.62897 19.9095 8.54431 19.8658 8.45298 19.8441C7.75841 19.6788 7.0947 19.4036 6.48692 19.029C6.40696 18.9797 6.31622 18.9507 6.22253 18.9444C6.12884 18.9381 6.03502 18.9548 5.94919 18.9928L4.92432 19.448L3.85031 18.3741ZM5.73225 20.3545L6.14684 20.1703C6.69566 20.4797 7.27972 20.7218 7.88642 20.8915L8.32464 22.0301C8.36659 22.1391 8.44061 22.2329 8.53692 22.299C8.63324 22.3652 8.74734 22.4005 8.86417 22.4005H11.177C11.2045 22.4005 11.2316 22.3981 11.2583 22.3943L12.2987 26.3266H6.08946L5.73225 20.3545ZM4.31202 27.8845C4.31211 27.7781 4.35443 27.6761 4.42967 27.6008C4.50492 27.5255 4.60695 27.4832 4.71338 27.483H13.898C14.0044 27.4832 14.1065 27.5255 14.1818 27.6008C14.257 27.676 14.2994 27.7781 14.2995 27.8845V28.2861H4.60766C4.50815 28.2861 4.40979 28.291 4.31202 28.298V27.8845ZM32.3923 35.1889H4.60766C3.0233 35.1889 1.73438 33.9 1.73438 32.3156C1.73438 30.7312 3.0233 29.4423 4.60766 29.4423H32.3923C33.9766 29.4423 35.2656 30.7312 35.2656 32.3157C35.2656 33.8999 33.9766 35.1889 32.3923 35.1889ZM20.4396 30.491C20.4396 30.6443 20.3787 30.7914 20.2703 30.8998C20.1619 31.0082 20.0148 31.0691 19.8615 31.0691H17.1385C16.9852 31.0691 16.8381 31.0082 16.7297 30.8998C16.6213 30.7914 16.5604 30.6443 16.5604 30.491C16.5604 30.3377 16.6213 30.1906 16.7297 30.0822C16.8381 29.9738 16.9852 29.9129 17.1385 29.9129H19.8615C20.0148 29.9129 20.1619 29.9738 20.2703 30.0822C20.3787 30.1906 20.4396 30.3377 20.4396 30.491ZM29.7011 34.1401C29.7011 34.2935 29.6402 34.4405 29.5318 34.5489C29.4234 34.6574 29.2763 34.7183 29.123 34.7183H26.4C26.2467 34.7183 26.0996 34.6574 25.9912 34.5489C25.8828 34.4405 25.8219 34.2935 25.8219 34.1401C25.8219 33.9868 25.8828 33.8398 25.9912 33.7313C26.0996 33.6229 26.2467 33.562 26.4 33.562H29.123C29.2763 33.562 29.4234 33.6229 29.5318 33.7313C29.6402 33.8398 29.7011 33.9868 29.7011 34.1401ZM11.178 30.491C11.178 30.6443 11.1171 30.7914 11.0087 30.8998C10.9003 31.0082 10.7532 31.0691 10.5999 31.0691H7.87695C7.72362 31.0691 7.57658 31.0082 7.46816 30.8998C7.35974 30.7914 7.29883 30.6443 7.29883 30.491C7.29883 30.3377 7.35974 30.1906 7.46816 30.0822C7.57658 29.9738 7.72362 29.9129 7.87695 29.9129H10.5999C10.7532 29.9129 10.9003 29.9738 11.0087 30.0822C11.1171 30.1906 11.178 30.3377 11.178 30.491ZM29.7011 30.491C29.7011 30.6443 29.6402 30.7914 29.5318 30.8998C29.4234 31.0082 29.2763 31.0691 29.123 31.0691H26.4C26.2467 31.0691 26.0996 31.0082 25.9912 30.8998C25.8828 30.7914 25.8219 30.6443 25.8219 30.491C25.8219 30.3377 25.8828 30.1906 25.9912 30.0822C26.0996 29.9738 26.2467 29.9129 26.4 29.9129H29.123C29.2763 29.9129 29.4234 29.9738 29.5318 30.0822C29.6402 30.1906 29.7011 30.3377 29.7011 30.491ZM20.4396 34.1401C20.4396 34.2935 20.3787 34.4405 20.2703 34.5489C20.1619 34.6574 20.0148 34.7183 19.8615 34.7183H17.1385C16.9852 34.7183 16.8381 34.6574 16.7297 34.5489C16.6213 34.4405 16.5604 34.2935 16.5604 34.1401C16.5604 33.9868 16.6213 33.8398 16.7297 33.7313C16.8381 33.6229 16.9852 33.562 17.1385 33.562H19.8615C20.0148 33.562 20.1619 33.6229 20.2703 33.7313C20.3787 33.8398 20.4396 33.9868 20.4396 34.1401ZM11.178 34.1401C11.178 34.2935 11.1171 34.4405 11.0087 34.5489C10.9003 34.6574 10.7532 34.7183 10.5999 34.7183H7.87695C7.72362 34.7183 7.57658 34.6574 7.46816 34.5489C7.35974 34.4405 7.29883 34.2935 7.29883 34.1401C7.29883 33.9868 7.35974 33.8398 7.46816 33.7313C7.57658 33.6229 7.72362 33.562 7.87695 33.562H10.5999C10.7532 33.562 10.9003 33.6229 11.0087 33.7313C11.1171 33.8398 11.178 33.9868 11.178 34.1401ZM4.60766 29.9129C3.28281 29.9129 2.20497 30.9907 2.20497 32.3156C2.20497 33.6404 3.28281 34.7183 4.60766 34.7183C5.93257 34.7183 7.01042 33.6404 7.01042 32.3156C7.01042 30.9907 5.93257 29.9129 4.60766 29.9129ZM4.60766 33.5621C3.92034 33.5621 3.36122 33.003 3.36122 32.3157C3.36122 31.6283 3.92034 31.0692 4.60766 31.0692C5.29497 31.0692 5.85417 31.6283 5.85417 32.3157C5.85417 33.003 5.29497 33.5621 4.60766 33.5621ZM13.8692 29.9129C12.5444 29.9129 11.4665 30.9907 11.4665 32.3156C11.4665 33.6404 12.5444 34.7183 13.8692 34.7183C15.1941 34.7183 16.2719 33.6404 16.2719 32.3156C16.2719 30.9907 15.1941 29.9129 13.8692 29.9129ZM13.8692 33.5621C13.1819 33.5621 12.6228 33.003 12.6228 32.3157C12.6228 31.6283 13.1819 31.0692 13.8692 31.0692C14.5565 31.0692 15.1157 31.6283 15.1157 32.3157C15.1157 33.003 14.5565 33.5621 13.8692 33.5621ZM23.1308 29.9129C21.8059 29.9129 20.728 30.9907 20.728 32.3156C20.728 33.6404 21.8059 34.7183 23.1308 34.7183C24.4556 34.7183 25.5335 33.6404 25.5335 32.3156C25.5335 30.9907 24.4556 29.9129 23.1308 29.9129ZM23.1308 33.5621C22.4435 33.5621 21.8843 33.003 21.8843 32.3157C21.8843 31.6283 22.4435 31.0692 23.1308 31.0692C23.8181 31.0692 24.3772 31.6283 24.3772 32.3157C24.3772 33.003 23.8181 33.5621 23.1308 33.5621ZM32.3923 29.9129C31.0674 29.9129 29.9896 30.9907 29.9896 32.3156C29.9896 33.6404 31.0674 34.7183 32.3923 34.7183C33.7171 34.7183 34.795 33.6404 34.795 32.3156C34.795 30.9907 33.7171 29.9129 32.3923 29.9129ZM32.3923 33.5621C31.705 33.5621 31.1458 33.003 31.1458 32.3157C31.1458 31.6283 31.705 31.0692 32.3923 31.0692C33.0796 31.0692 33.6387 31.6283 33.6387 32.3157C33.6387 33.003 33.0796 33.5621 32.3923 33.5621ZM21.302 3.35058C21.302 2.91157 21.6579 2.55573 22.0969 2.55573C22.5358 2.55573 22.8917 2.91157 22.8917 3.35058C22.8917 3.7896 22.5359 4.14543 22.0969 4.14543C21.6579 4.14543 21.302 3.7896 21.302 3.35058ZM10.0205 17.8895C12.5634 17.8895 14.6321 15.8208 14.6321 13.278C14.6321 10.7351 12.5633 8.66644 10.0205 8.66644C7.47769 8.66644 5.40901 10.7352 5.40901 13.278C5.40901 15.8207 7.47776 17.8895 10.0205 17.8895ZM10.0205 9.82262C11.9258 9.82262 13.4758 11.3726 13.4758 13.2779C13.4758 15.1831 11.9258 16.7332 10.0205 16.7332C8.11529 16.7332 6.56526 15.1831 6.56526 13.2779C6.56526 11.3726 8.11529 9.82262 10.0205 9.82262Z" fill="#757A76"/>
</svg>
