<svg width="36" height="23" viewBox="0 0 36 23" fill="none" xmlns="http://www.w3.org/2000/svg">
<path d="M35.5375 16.55L31.91 13.0234H28.0895V9.43457H27.0348V13.0234H17.4724V9.43457H16.4177V13.0234H6.85537V9.43457H5.8007V13.0234H0V15.5868H1.05467V14.0488H10.1696L13.4881 17.2751C13.5869 17.3711 13.6413 17.4998 13.6413 17.6376C13.6413 17.7753 13.5869 17.904 13.4881 18.0001L10.1696 21.2264H1.05467V16.6122H0V22.2518H14.5275V21.2264H11.6612L14.2339 18.7252C14.8508 18.1255 14.8508 17.1497 14.2339 16.5501L11.6612 14.0488H20.5577L23.8763 17.2751C23.975 17.3712 24.0294 17.4999 24.0294 17.6377C24.0294 17.7754 23.975 17.9041 23.8762 18.0002L20.5577 21.2265H17.6915V22.2518H31.91L35.5375 18.7252C36.1542 18.1255 36.1542 17.1497 35.5375 16.55ZM34.7916 18.0001L31.4731 21.2264H22.0493L24.6219 18.7252C24.9199 18.4355 25.0841 18.0492 25.0841 17.6376C25.0841 17.2259 24.9199 16.8397 24.622 16.55L22.0493 14.0488H31.4731L34.7916 17.2751C34.9972 17.475 34.9972 17.8002 34.7916 18.0001Z" fill="#757A76"/>
<path d="M15.5827 21.2266H16.6374V22.252H15.5827V21.2266ZM32.6512 3.16192L30.1684 0.748047L27.5627 3.28127L26.2599 2.01466L23.777 4.4286L27.5627 8.10909L32.6512 3.16192ZM26.2599 3.46475L27.5627 4.73136L30.1684 2.19807L31.1598 3.16185L27.5627 6.659L25.2685 4.4286L26.2599 3.46475ZM11.4172 3.16213L8.93436 0.74832L6.32861 3.28148L5.02581 2.01493L2.54297 4.42874L6.32861 8.10902L11.4172 3.16213ZM5.02581 3.46495L6.32861 4.7315L8.93436 2.19841L9.92568 3.16213L6.32861 6.659L4.03449 4.42867L5.02581 3.46495ZM22.0342 3.16192L19.5514 0.748047L16.9457 3.28127L15.6429 2.01466L13.1599 4.4286L16.9457 8.10909L22.0342 3.16192ZM15.6429 3.46475L16.9457 4.73136L19.5514 2.19807L20.5428 3.16185L16.9457 6.659L14.6515 4.4286L15.6429 3.46475ZM29.5827 15.0743H30.6375V16.0996H29.5827V15.0743ZM27.4734 15.0743H28.5281V16.0996H27.4734V15.0743Z" fill="#757A76"/>
</svg>
