<svg width="26" height="26" viewBox="0 0 26 26" fill="none" xmlns="http://www.w3.org/2000/svg">
<path fill-rule="evenodd" clip-rule="evenodd" d="M3.91 2.97025L4.76375 2.1165C5.2525 1.62775 6.04375 1.62775 6.5325 2.1165L11.2825 6.8665C11.77 7.354 11.77 8.1465 11.2825 8.634L9.57375 10.3428C9.08625 10.8303 9.08625 11.6228 9.57375 12.1103L13.8888 16.4265C14.3775 16.914 15.17 16.914 15.6575 16.4265L17.3663 14.7178C17.8538 14.2303 18.6462 14.2303 19.1337 14.7178L23.8838 19.4678C24.3725 19.9565 24.3725 20.7478 23.8838 21.2365L23.03 22.0903C20.15 24.9703 15.4812 24.9703 12.6012 22.0903L3.91 13.399C1.03 10.519 1.03 5.85025 3.91 2.97025Z" stroke="#EAEBED" stroke-width="2" stroke-linecap="round" stroke-linejoin="round"/>
</svg>
